<?xml version="1.0" standalone="no"?>
<!DOCTYPE svg PUBLIC "-//W3C//DTD SVG 20010904//EN"
 "http://www.w3.org/TR/2001/REC-SVG-20010904/DTD/svg10.dtd">
<svg version="1.0" xmlns="http://www.w3.org/2000/svg"
 width="1200.000000pt" height="1200.000000pt" viewBox="0 0 1200.000000 1200.000000"
 preserveAspectRatio="xMidYMid meet">
<metadata>
Created by potrace 1.14, written by Peter Selinger 2001-2017
</metadata>
<g transform="translate(0.000000,1200.000000) scale(0.100000,-0.100000)"
fill="#000000" stroke="none">
<path d="M5989 11853 c-1 -27 -2 -59 -4 -73 -1 -14 -5 -77 -9 -140 -4 -63 -9
-135 -11 -160 -4 -45 -15 -202 -20 -295 -4 -78 -16 -265 -20 -315 -2 -25 -7
-90 -10 -145 -3 -55 -8 -120 -10 -145 -2 -25 -7 -92 -10 -150 -4 -58 -8 -130
-10 -160 -12 -158 -16 -221 -20 -285 -5 -89 -14 -221 -20 -305 -2 -36 -7 -103
-10 -150 -3 -47 -7 -114 -10 -150 -3 -36 -7 -103 -10 -150 -3 -47 -7 -114 -10
-150 -3 -36 -7 -103 -10 -150 -3 -47 -7 -114 -10 -150 -3 -36 -7 -103 -10
-150 -3 -47 -7 -116 -10 -155 -3 -38 -7 -106 -10 -150 -6 -93 -13 -203 -20
-295 -2 -36 -7 -105 -10 -155 -3 -49 -8 -119 -11 -155 -14 -167 -12 -195 12
-246 73 -153 252 -222 394 -152 107 53 173 145 174 242 0 28 -3 98 -7 156 -8
113 -13 175 -22 315 -3 50 -8 117 -10 150 -3 33 -7 98 -10 145 -3 47 -8 112
-10 145 -2 33 -7 101 -10 150 -3 50 -8 122 -10 160 -5 69 -9 121 -20 300 -3
50 -8 117 -10 150 -5 57 -8 113 -20 290 -3 44 -7 112 -10 150 -2 39 -7 106
-10 150 -13 193 -16 234 -20 300 -10 149 -17 252 -20 305 -3 30 -7 98 -10 150
-4 52 -8 120 -10 150 -2 30 -7 96 -10 145 -3 50 -7 120 -10 158 -11 148 -22
319 -30 437 -4 65 -10 160 -21 305 -1 22 -3 59 -3 83 -1 58 -21 53 -22 -5z"/>
<path d="M7997 10838 c-63 -123 -141 -272 -172 -333 -32 -60 -89 -171 -127
-245 -39 -74 -99 -189 -133 -255 -34 -66 -97 -187 -140 -270 -43 -82 -101
-195 -130 -250 -29 -55 -98 -190 -155 -300 -56 -110 -117 -227 -135 -260 -18
-33 -64 -121 -102 -195 -164 -317 -266 -513 -332 -640 -154 -294 -162 -312
-163 -367 0 -101 67 -200 165 -243 29 -12 66 -29 82 -37 17 -8 64 -17 106 -20
121 -9 192 34 233 142 8 22 47 141 86 265 39 124 89 279 110 345 21 66 61 190
89 275 27 85 66 207 86 270 20 63 43 133 51 155 7 22 50 155 94 295 45 140 87
273 95 295 7 22 48 148 90 280 42 132 99 308 125 390 27 83 63 195 81 250 17
55 44 138 59 185 16 47 56 173 90 280 34 107 64 198 67 203 2 4 2 7 -1 7 -2 0
-56 -100 -119 -222z"/>
<path d="M3895 11013 c7 -21 17 -47 21 -58 4 -11 8 -24 10 -30 3 -13 80 -253
195 -610 178 -550 252 -782 296 -920 24 -77 53 -165 63 -195 11 -30 49 -149
86 -265 36 -115 74 -235 84 -265 11 -30 56 -170 100 -310 45 -140 104 -322
130 -405 27 -82 63 -195 80 -250 64 -203 84 -237 165 -270 75 -32 190 -13 315
50 90 45 151 143 151 240 0 45 -8 69 -54 157 -30 57 -96 184 -147 283 -51 99
-109 212 -130 250 -21 39 -81 156 -135 260 -54 105 -117 226 -140 270 -23 44
-84 161 -135 260 -51 99 -119 230 -150 290 -31 61 -92 178 -135 260 -42 83
-103 200 -135 260 -71 136 -167 320 -252 485 -36 69 -107 206 -159 305 -51 99
-100 195 -108 213 -21 44 -32 41 -16 -5z"/>
<path d="M10145 10159 c-122 -107 -197 -174 -295 -259 -52 -45 -126 -110 -164
-144 -39 -33 -88 -77 -110 -96 -23 -19 -43 -37 -46 -40 -3 -3 -39 -34 -80 -70
-41 -36 -77 -67 -80 -70 -3 -3 -95 -84 -205 -179 -110 -95 -218 -190 -240
-210 -22 -20 -71 -63 -110 -96 -38 -33 -75 -64 -81 -70 -27 -24 -154 -136
-204 -180 -30 -26 -84 -74 -120 -105 -36 -32 -108 -95 -160 -140 -52 -45 -109
-94 -125 -109 -17 -14 -64 -55 -105 -91 -41 -36 -79 -70 -85 -76 -8 -9 -143
-126 -269 -234 -16 -14 -36 -32 -45 -40 -9 -9 -47 -43 -86 -75 -59 -51 -113
-98 -159 -140 -6 -6 -60 -53 -121 -105 -60 -52 -117 -102 -125 -110 -8 -8 -44
-40 -79 -70 -36 -30 -76 -66 -90 -79 -15 -13 -40 -34 -57 -47 -103 -79 -105
-273 -3 -389 94 -107 253 -141 379 -82 63 29 84 50 270 267 30 35 87 100 125
145 39 44 154 177 255 295 102 118 189 220 195 226 5 6 31 35 57 65 25 30 56
65 68 79 12 14 40 47 63 74 23 27 47 54 52 60 6 6 37 43 70 81 33 39 64 75 70
81 5 6 19 22 30 35 31 36 404 470 434 504 14 17 96 111 181 210 85 99 157 182
160 185 3 3 43 50 90 105 47 55 87 102 91 105 3 3 35 39 70 80 35 41 68 80 74
86 5 6 33 37 60 70 28 32 68 79 90 104 22 26 60 70 85 99 25 30 54 63 65 75
11 13 43 49 70 81 28 33 70 82 94 110 24 27 55 64 69 80 14 17 32 38 40 48 28
32 6 17 -63 -44z"/>
<path d="M1780 10175 c8 -11 24 -29 35 -41 11 -12 45 -50 75 -85 97 -112 125
-144 130 -149 3 -3 34 -39 69 -80 36 -41 70 -79 75 -85 6 -5 54 -59 105 -120
52 -60 102 -117 110 -126 9 -9 39 -42 66 -74 28 -32 55 -63 60 -69 6 -6 53
-60 105 -121 52 -60 97 -112 100 -115 3 -3 68 -77 145 -165 76 -88 143 -164
149 -170 6 -5 38 -41 70 -80 33 -38 64 -74 70 -80 6 -5 38 -41 71 -80 33 -38
74 -86 91 -105 17 -19 80 -91 140 -160 60 -69 111 -127 114 -130 3 -3 50 -57
105 -120 55 -63 114 -131 131 -150 18 -19 41 -45 51 -56 10 -12 41 -48 68 -80
28 -32 59 -68 70 -80 11 -12 40 -45 65 -74 25 -29 50 -58 55 -64 6 -6 42 -47
79 -91 38 -44 74 -84 80 -90 6 -5 38 -41 71 -80 33 -38 62 -72 65 -75 3 -3 34
-39 70 -80 35 -41 71 -82 80 -91 8 -8 45 -51 83 -95 89 -107 129 -129 228
-128 115 0 204 49 266 147 48 76 61 186 32 274 -23 73 -48 103 -165 203 -16
14 -96 84 -179 155 -82 72 -161 140 -175 151 -14 12 -48 41 -75 65 -28 24 -77
67 -109 94 -33 28 -64 55 -70 60 -6 6 -74 64 -151 130 -77 66 -142 122 -145
125 -5 5 -136 119 -180 157 -161 137 -416 357 -420 362 -3 4 -32 29 -65 56
-33 28 -65 55 -71 60 -18 16 -121 105 -254 219 -217 187 -233 201 -244 211 -6
6 -74 64 -151 130 -77 65 -147 126 -156 134 -9 9 -27 25 -40 36 -13 11 -121
103 -239 205 -265 228 -256 220 -365 315 -142 124 -142 124 -125 100z"/>
<path d="M10905 8043 c-110 -36 -292 -94 -405 -130 -113 -35 -259 -82 -325
-103 -66 -21 -201 -64 -300 -95 -99 -32 -241 -77 -315 -101 -164 -52 -705
-224 -850 -269 -58 -19 -154 -49 -215 -68 -60 -19 -288 -92 -505 -160 -385
-123 -396 -127 -430 -165 -46 -52 -74 -136 -73 -223 0 -79 13 -115 64 -185 68
-93 163 -154 241 -154 24 0 427 196 553 270 17 9 125 66 240 125 116 59 246
127 290 150 44 23 152 79 240 125 162 84 340 176 540 280 61 31 180 93 265
137 85 45 200 104 255 133 55 28 179 92 275 142 96 50 227 118 290 150 63 33
176 92 250 130 74 39 137 72 139 74 13 12 -45 -5 -224 -63z"/>
<path d="M870 8068 c5 -6 325 -168 1165 -593 259 -131 605 -306 770 -390 1324
-673 1377 -699 1432 -698 100 1 172 65 226 201 38 99 44 188 16 251 -37 84
-53 92 -444 216 -132 42 -258 82 -280 90 -22 7 -89 29 -150 48 -185 59 -586
188 -660 212 -38 13 -171 56 -295 95 -124 40 -299 96 -390 125 -91 30 -214 69
-275 89 -60 19 -180 57 -265 85 -136 43 -575 184 -760 243 -36 12 -72 23 -80
26 -8 3 -13 3 -10 0z"/>
<path d="M5787 7019 c-48 -10 -107 -25 -132 -33 -317 -108 -575 -366 -681
-682 -63 -188 -74 -417 -28 -599 133 -534 642 -887 1184 -822 84 10 108 16
195 43 324 103 583 352 695 671 62 175 79 405 43 568 -2 11 -7 33 -10 50 -10
60 -66 196 -115 281 -157 276 -430 470 -743 528 -111 20 -299 18 -408 -5z"/>
<path d="M4398 6254 c-2 -1 -46 -5 -98 -8 -52 -4 -120 -9 -150 -11 -30 -2
-100 -7 -155 -10 -55 -4 -122 -8 -150 -10 -27 -2 -97 -7 -155 -10 -58 -4 -123
-8 -145 -10 -22 -2 -89 -7 -150 -11 -60 -3 -128 -8 -150 -9 -198 -14 -291 -20
-444 -30 -51 -3 -121 -7 -155 -10 -33 -2 -97 -7 -141 -10 -44 -3 -111 -7 -150
-10 -38 -2 -110 -7 -160 -10 -49 -3 -117 -8 -150 -10 -123 -10 -193 -14 -290
-20 -242 -15 -414 -26 -465 -30 -25 -2 -85 -7 -135 -10 -49 -3 -119 -8 -155
-10 -36 -3 -105 -7 -155 -10 -49 -3 -115 -8 -145 -10 -30 -2 -95 -7 -145 -10
-112 -7 -192 -12 -320 -21 -55 -4 -110 -8 -122 -8 -47 -3 -33 -16 18 -17 30
-1 70 -3 89 -4 19 -2 80 -6 135 -9 55 -4 124 -9 153 -11 29 -2 96 -7 150 -10
53 -3 120 -7 147 -10 28 -2 95 -7 150 -10 55 -3 123 -8 150 -10 28 -2 91 -6
140 -10 50 -3 117 -8 150 -10 33 -3 105 -7 160 -10 55 -3 123 -8 150 -10 28
-2 93 -7 145 -10 52 -3 122 -7 155 -10 33 -2 96 -7 140 -10 159 -10 368 -24
450 -30 33 -2 105 -7 160 -10 55 -4 125 -8 155 -10 57 -4 187 -13 300 -20 36
-3 97 -7 135 -9 39 -3 111 -8 160 -11 91 -6 164 -11 290 -20 177 -12 245 -17
305 -20 36 -2 115 -8 175 -12 216 -16 257 -7 338 72 120 116 124 297 8 418
-46 49 -117 86 -175 90 -25 3 -47 3 -48 1z"/>
<path d="M7475 6246 c-55 -20 -91 -48 -122 -95 -106 -158 -63 -385 88 -464 50
-27 59 -28 134 -22 108 8 184 14 285 20 47 3 114 8 150 10 36 2 102 7 148 10
172 11 249 16 302 20 66 5 181 13 310 20 52 3 115 8 140 10 25 2 92 7 150 10
58 3 137 8 175 11 39 2 95 7 125 9 49 4 119 8 300 20 30 2 105 6 165 10 61 3
121 8 135 10 14 2 81 6 150 10 69 4 141 8 160 10 19 2 85 6 145 10 61 3 126 8
145 10 19 2 87 6 150 10 63 4 133 8 155 10 72 5 228 15 305 20 41 3 110 8 153
11 42 3 101 7 130 9 179 11 285 18 307 20 14 2 47 4 74 4 27 1 46 4 42 8 -9 9
-10 9 -146 17 -63 4 -142 9 -175 11 -33 3 -96 7 -140 10 -44 3 -111 7 -150 10
-38 3 -106 7 -150 10 -120 7 -243 15 -310 20 -33 3 -96 7 -140 10 -44 3 -111
7 -150 10 -38 3 -106 7 -150 10 -76 5 -145 10 -300 20 -38 3 -104 7 -145 10
-176 11 -249 16 -305 20 -33 2 -100 7 -150 10 -49 3 -117 7 -150 10 -33 2
-100 7 -150 10 -49 3 -117 8 -150 10 -63 5 -166 12 -300 20 -148 9 -250 15
-310 21 -33 2 -100 7 -150 9 -49 3 -110 7 -135 10 -25 2 -94 7 -155 10 -60 3
-135 8 -165 10 -53 5 -188 14 -260 19 -19 2 -49 -2 -65 -8z"/>
<path d="M55 5960 c-3 -5 -1 -10 4 -10 6 0 11 5 11 10 0 6 -2 10 -4 10 -3 0
-8 -4 -11 -10z"/>
<path d="M11890 5960 c0 -5 5 -10 11 -10 5 0 7 5 4 10 -3 6 -8 10 -11 10 -2 0
-4 -4 -4 -10z"/>
<path d="M4055 5506 c-66 -34 -192 -100 -280 -146 -88 -45 -212 -110 -275
-143 -195 -101 -368 -191 -535 -277 -155 -80 -273 -141 -500 -260 -60 -32
-186 -97 -280 -145 -93 -48 -210 -109 -260 -135 -49 -26 -166 -87 -260 -135
-93 -48 -217 -113 -275 -143 -133 -69 -374 -194 -462 -239 -38 -18 -68 -35
-68 -37 0 -4 3 -3 325 99 204 65 459 145 695 220 185 58 302 95 345 110 22 7
90 29 150 48 165 52 394 124 545 173 74 23 236 75 360 114 1163 369 1121 355
1157 392 66 69 81 206 33 313 -61 138 -89 178 -154 220 -33 22 -44 25 -101 30
-34 3 -60 -7 -160 -59z"/>
<path d="M7637 5537 c-76 -38 -174 -136 -184 -185 -11 -52 -8 -189 5 -237 23
-82 78 -143 150 -165 15 -4 79 -25 142 -45 63 -20 149 -47 190 -60 41 -13 174
-55 295 -93 681 -217 1053 -336 1185 -377 47 -15 182 -58 301 -96 118 -38 221
-69 227 -69 7 0 20 -4 30 -10 9 -5 105 -37 212 -70 107 -34 287 -91 400 -127
113 -35 261 -82 330 -104 69 -22 137 -44 153 -49 50 -16 28 -2 -85 55 -62 32
-153 79 -203 105 -49 26 -157 82 -240 125 -82 43 -199 103 -260 135 -60 32
-182 95 -270 140 -198 102 -372 193 -535 277 -203 106 -355 185 -515 268 -304
157 -422 219 -530 275 -135 70 -379 197 -539 279 -138 71 -166 74 -259 28z"/>
<path d="M4781 5120 c-28 -9 -61 -26 -73 -36 -21 -18 -32 -30 -88 -94 -21 -24
-46 -53 -230 -260 -47 -53 -114 -129 -150 -170 -36 -41 -87 -99 -115 -130 -88
-99 -391 -440 -500 -564 -33 -37 -69 -78 -80 -90 -11 -13 -49 -56 -85 -96 -36
-40 -74 -83 -85 -96 -11 -12 -33 -37 -49 -55 -116 -133 -331 -376 -340 -384
-6 -5 -74 -82 -151 -170 -77 -88 -149 -169 -160 -181 -22 -23 -25 -26 -190
-214 -60 -69 -124 -141 -141 -160 -17 -19 -73 -82 -124 -140 -51 -58 -109
-123 -129 -145 -20 -22 -68 -76 -106 -120 -74 -84 -130 -148 -155 -175 -8 -9
-26 -29 -39 -43 -25 -28 -23 -38 2 -12 13 12 112 99 201 175 16 14 45 39 65
57 20 17 142 122 271 233 129 111 249 214 265 228 17 15 62 54 100 87 39 33
75 64 81 70 6 5 35 30 64 55 56 46 211 181 220 190 3 3 84 72 180 155 96 82
177 152 180 155 3 3 84 73 180 155 96 82 180 154 186 160 34 31 93 82 214 185
74 63 142 122 151 130 8 8 29 26 45 40 101 87 223 192 238 205 6 6 58 50 116
100 58 49 107 92 110 95 7 7 128 111 165 141 16 13 41 35 56 49 14 14 50 45
80 70 170 140 212 202 213 311 1 195 -211 351 -393 289z"/>
<path d="M7069 5126 c-191 -50 -297 -252 -215 -414 28 -54 66 -91 306 -297
261 -224 411 -354 445 -384 17 -14 77 -66 135 -116 58 -49 107 -92 110 -95 3
-3 68 -60 145 -125 77 -66 142 -122 145 -125 3 -3 68 -59 145 -125 77 -66 142
-122 145 -125 5 -6 270 -234 308 -266 13 -10 34 -28 46 -39 12 -11 48 -42 81
-70 32 -27 68 -59 81 -70 12 -11 33 -29 45 -40 79 -67 235 -201 239 -205 3 -3
70 -61 150 -129 80 -69 152 -132 161 -140 9 -9 27 -25 40 -35 31 -26 373 -319
379 -326 3 -3 32 -28 65 -55 32 -28 66 -57 76 -65 128 -117 144 -127 74 -45
-33 39 -62 72 -65 75 -3 3 -30 34 -60 70 -30 36 -60 70 -66 75 -6 6 -39 44
-75 85 -35 41 -66 77 -69 80 -3 3 -54 61 -114 130 -60 69 -123 141 -140 160
-17 19 -60 69 -96 110 -36 41 -67 77 -70 80 -3 3 -32 37 -65 75 -33 39 -62 72
-65 75 -3 3 -82 93 -175 200 -93 107 -174 200 -180 206 -23 26 -78 88 -205
234 -74 85 -146 169 -161 185 -14 17 -64 73 -110 126 -46 52 -109 124 -139
159 -30 35 -91 105 -135 155 -44 50 -105 119 -135 154 -30 35 -60 69 -65 75
-6 6 -71 81 -145 166 -74 85 -137 157 -140 160 -3 3 -34 39 -70 80 -62 72
-114 130 -135 154 -5 6 -39 44 -75 85 -67 77 -111 110 -170 129 -53 18 -130
21 -181 8z"/>
<path d="M5925 4697 c-92 -31 -158 -87 -197 -166 -24 -50 -27 -92 -15 -246 5
-55 10 -131 12 -170 2 -38 7 -104 10 -145 3 -41 7 -109 10 -150 3 -41 7 -106
10 -145 3 -38 7 -108 10 -155 3 -47 7 -119 10 -160 3 -41 8 -111 10 -155 3
-44 8 -102 10 -130 2 -27 6 -95 10 -150 3 -55 8 -127 10 -160 2 -33 7 -102 11
-154 3 -52 8 -115 9 -140 2 -25 6 -98 10 -161 3 -63 8 -131 10 -150 3 -19 7
-78 10 -130 3 -52 8 -126 10 -165 3 -38 7 -104 10 -145 3 -41 7 -106 10 -145
3 -38 7 -108 10 -155 3 -47 8 -116 10 -155 7 -101 14 -198 20 -295 3 -47 7
-114 10 -150 3 -36 7 -101 10 -145 2 -44 7 -111 10 -150 11 -150 27 -391 28
-432 1 -57 14 -26 16 39 1 35 4 79 6 98 2 19 6 85 10 145 3 61 8 126 10 145 2
19 7 87 10 150 3 63 8 135 10 160 4 41 7 94 20 300 3 41 7 111 10 155 3 44 8
112 10 150 3 39 7 99 10 135 3 36 7 103 10 150 7 110 14 219 20 300 3 36 7
101 10 145 3 44 7 112 10 150 2 39 7 108 10 155 2 47 7 114 10 150 2 36 7 103
10 150 8 127 16 238 20 300 3 30 7 96 10 145 3 50 7 122 10 160 2 39 7 106 10
150 3 44 7 107 10 140 2 33 6 105 10 160 3 55 8 123 10 150 3 28 7 93 10 145
3 52 8 122 11 155 14 172 13 199 -12 252 -62 130 -227 210 -349 170z"/>
<path d="M6698 4515 c-2 -2 -20 -6 -41 -9 -115 -18 -249 -186 -249 -311 0 -47
10 -72 92 -231 164 -317 221 -426 288 -554 115 -222 188 -362 267 -515 139
-268 227 -438 285 -550 31 -60 92 -177 135 -260 43 -82 106 -204 140 -270 35
-66 93 -178 130 -250 37 -71 96 -184 130 -250 34 -66 100 -192 145 -280 46
-88 85 -162 88 -165 6 -6 -2 20 -43 150 -18 58 -56 179 -85 270 -28 91 -58
183 -65 205 -8 22 -29 90 -48 150 -38 121 -137 434 -197 620 -21 66 -66 208
-100 315 -110 349 -181 573 -220 695 -21 66 -68 215 -105 330 -36 116 -84 264
-105 330 -21 66 -64 200 -95 297 -45 143 -62 183 -87 208 -34 35 -70 55 -113
64 -34 7 -142 15 -147 11z"/>
<path d="M5139 4487 c-56 -21 -95 -53 -115 -94 -10 -21 -19 -40 -19 -43 0 -3
-31 -99 -69 -215 -37 -115 -104 -322 -148 -460 -44 -137 -101 -317 -128 -400
-27 -82 -65 -202 -85 -265 -20 -63 -47 -146 -60 -185 -13 -38 -56 -171 -95
-295 -40 -124 -96 -299 -125 -390 -30 -91 -90 -280 -135 -420 -45 -140 -85
-266 -90 -280 -24 -68 -180 -559 -180 -566 0 -11 -37 -85 677 1326 951 1877
1002 1980 1007 2015 6 54 -21 120 -68 167 -86 84 -276 139 -367 105z"/>
</g>
</svg>
